<svg t="1619577207085" class="icon" viewBox="0 0 1024 1024" version="1.1" xmlns="http://www.w3.org/2000/svg" p-id="2582" width="128" height="128"><path d="M192 128a64 64 0 0 0-64 64v128a64 64 0 0 0 64 64h128a64 64 0 0 0 64-64V192a64 64 0 0 0-64-64H192z m0-64h128a128 128 0 0 1 128 128v128a128 128 0 0 1-128 128H192a128 128 0 0 1-128-128V192a128 128 0 0 1 128-128z m440.256 658.752a64 64 0 0 0 0 90.496l90.496 90.496a64 64 0 0 0 90.496 0l90.496-90.496a64 64 0 0 0 0-90.496l-90.496-90.496a64 64 0 0 0-90.496 0l-90.496 90.496zM192 640a64 64 0 0 0-64 64v128a64 64 0 0 0 64 64h128a64 64 0 0 0 64-64v-128a64 64 0 0 0-64-64H192z m0-64h128a128 128 0 0 1 128 128v128a128 128 0 0 1-128 128H192a128 128 0 0 1-128-128v-128a128 128 0 0 1 128-128z m576-192a128 128 0 1 0 0-256 128 128 0 0 0 0 256z m0 64a192 192 0 1 1 0-384 192 192 0 0 1 0 384z" p-id="2583"></path></svg>
