<svg t="1619612694885" class="icon" viewBox="0 0 1024 1024" version="1.1" xmlns="http://www.w3.org/2000/svg" p-id="2992" width="128" height="128"><path d="M96 960a32 32 0 1 1 0-64H192v-256a320 320 0 0 1 306.112-319.68L512 320a320 320 0 0 1 320 320v256h96a32 32 0 1 1 0 64h-832zM512 384a256 256 0 0 0-256 256v256h512v-256a256 256 0 0 0-243.2-255.68z m499.136-16a32 32 0 0 1-11.712 43.712l-110.848 64a32 32 0 0 1-32-55.424l110.848-64a32 32 0 0 1 43.712 11.712zM56.576 356.288l110.848 64a32 32 0 1 1-32 55.424l-110.848-64a32 32 0 1 1 32-55.424zM816 140.864a32 32 0 0 1 11.712 43.712l-64 110.848a32 32 0 1 1-55.424-32l64-110.848a32 32 0 0 1 43.712-11.712z m-564.288 11.712l64 110.848a32 32 0 1 1-55.424 32l-64-110.848a32 32 0 1 1 55.424-32zM512 64a32 32 0 0 1 32 32v128a32 32 0 0 1-64 0v-128A32 32 0 0 1 512 64z" p-id="2993"></path></svg>
