<svg t="1620231468664" class="icon" viewBox="0 0 1024 1024" version="1.1" xmlns="http://www.w3.org/2000/svg" p-id="1671" width="128" height="128"><path d="M512 0a512 512 0 1 1 0 1024A512 512 0 0 1 512 0z m0 64a448 448 0 1 0 0 896A448 448 0 0 0 512 64z m201.728 279.232a19.2 19.2 0 0 1 0 7.552l-32.576 162.816a19.2 19.2 0 0 1-32.384 9.792l-42.56-42.496-226.24 226.304a32 32 0 0 1-45.248-45.248l226.24-226.304-42.496-42.496a19.2 19.2 0 0 1 9.856-32.448l162.816-32.512a19.2 19.2 0 0 1 22.592 15.04z" p-id="1672"></path></svg>
