<svg t="1619612601714" class="icon" viewBox="0 0 1024 1024" version="1.1" xmlns="http://www.w3.org/2000/svg" p-id="2790" width="128" height="128"><path d="M810.666667 725.333333a42.666667 42.666667 0 0 1 0 85.333334H213.333333a42.666667 42.666667 0 0 1 0-85.333334h597.333334z m0-170.666666a42.666667 42.666667 0 0 1 0 85.333333H213.333333a42.666667 42.666667 0 0 1 0-85.333333h597.333334z m0-170.666667a42.666667 42.666667 0 0 1 0 85.333333H213.333333a42.666667 42.666667 0 0 1 0-85.333333h597.333334z m0-170.666667a42.666667 42.666667 0 0 1 0 85.333334H213.333333a42.666667 42.666667 0 1 1 0-85.333334h597.333334z" p-id="2791"></path></svg>
