<?xml version="1.0" encoding="UTF-8"?>
<svg width="16px" height="16px" viewBox="0 0 16 16" version="1.1" xmlns="http://www.w3.org/2000/svg" xmlns:xlink="http://www.w3.org/1999/xlink">
    <title>路径</title>
    <g id="页面-1" stroke="none" stroke-width="1" fill="none" fill-rule="evenodd">
        <g id="组织管理-线上" transform="translate(-280.000000, -192.000000)" fill="#4BBC74" fill-rule="nonzero">
            <g id="组织管理" transform="translate(226.000000, 100.000000)">
                <g id="组织总架构" transform="translate(0.000000, 54.000000)">
                    <g id="Checkbox/Default/Normal备份" transform="translate(40.000000, 34.000000)">
                        <g id="组织架构" transform="translate(14.000000, 3.000000)">
                            <rect id="矩形" opacity="0" x="0" y="0" width="16" height="16"></rect>
                            <path d="M14.046875,9.28375 L12.275625,9.28375 L12.275625,8.986875 C12.2724247,8.26132392 11.687546,7.6726189 10.9620313,7.6646875 C10.46875,7.66015625 9.9753125,7.6646875 9.4821875,7.6646875 L8.36390625,7.6646875 L8.36390625,6.71625 L9.9321875,6.71625 C10.4493504,6.71625 10.8685938,6.29700664 10.8685938,5.77984375 L10.8685938,1.95171875 C10.8684212,1.4346779 10.4492284,1.015625 9.9321875,1.015625 L6.1040625,1.015625 C5.85571212,1.015625 5.61753353,1.1142818 5.44192329,1.28989204 C5.26631305,1.46550228 5.16765625,1.70368087 5.16765625,1.95203125 L5.16765625,5.78015625 C5.16765625,6.02850663 5.26631305,6.26668522 5.44192329,6.44229546 C5.61753353,6.6179057 5.85571212,6.7165625 6.1040625,6.7165625 L7.614375,6.7165625 L7.614375,7.6640625 L5.02453125,7.6640625 C4.87109375,7.6640625 4.71453125,7.6796875 4.56921875,7.730625 C4.17819812,7.86562813 3.87094063,8.17288562 3.7359375,8.56390625 C3.664375,8.76703125 3.66953125,8.98078125 3.66953125,9.19234375 L3.66953125,9.25734375 L1.953125,9.25734375 C1.70458517,9.25705345 1.46612549,9.35558208 1.29027863,9.53122379 C1.11443176,9.7068655 1.015625,9.94521 1.015625,10.19375 L1.015625,14.021875 C1.015625,14.2703608 1.11455129,14.508625 1.29038915,14.6841991 C1.46622702,14.8597732 1.70463931,14.958259 1.953125,14.9579688 L5.78125,14.9579688 C6.29843817,14.9579688 6.71772622,14.5387507 6.7178125,14.0215625 L6.7178125,10.1934375 C6.71755371,9.67637138 6.29831618,9.25734369 5.78125,9.25734375 L4.4184375,9.25734375 L4.4184375,8.9946875 C4.4184375,8.97 4.4184375,8.94546875 4.42015625,8.92078125 C4.42056735,8.9135065 4.42134962,8.90625748 4.4225,8.8990625 C4.42265778,8.8960795 4.4229707,8.89310673 4.4234375,8.89015625 C4.42446406,8.88259779 4.42488207,8.87496912 4.4246875,8.86734375 L4.4246875,8.88078125 C4.43261476,8.84196815 4.44305337,8.80371061 4.4559375,8.76625 C4.46,8.7565625 4.46546875,8.74375 4.4678125,8.73921875 C4.4832552,8.70895098 4.50031097,8.67953369 4.51890625,8.65109375 C4.53,8.634375 4.5440625,8.61859375 4.5540625,8.60125 L4.5446875,8.616875 L4.54703125,8.61421875 C4.5725,8.58578125 4.600625,8.56046875 4.62828125,8.534375 C4.63734375,8.52765625 4.64625,8.52046875 4.65515625,8.5146875 C4.68359424,8.49604153 4.71301145,8.47893365 4.74328125,8.4634375 L4.72765625,8.4671875 C4.74328125,8.46328125 4.76015625,8.4546875 4.77609375,8.44921875 C4.81394099,8.43712772 4.85237549,8.42695848 4.89125,8.41875 C4.9059375,8.4175 4.92140625,8.41453125 4.93484375,8.41390625 C4.94828125,8.41328125 4.96390625,8.41390625 4.97875,8.41296875 L4.9903125,8.41296875 C5.49421875,8.41109375 5.998125,8.41296875 6.50203125,8.41296875 L10.96375,8.41296875 C10.979375,8.41296875 10.9926563,8.41296875 11.0076563,8.41390625 C11.0185938,8.41390625 11.0296875,8.4153125 11.040625,8.41625 L11.05625,8.4190625 C11.090269,8.4261271 11.1238638,8.4350996 11.156875,8.4459375 C11.1760937,8.4521875 11.195625,8.4625 11.2151562,8.4671875 L11.1995312,8.4634375 C11.229801,8.47893365 11.2592183,8.49604153 11.2876562,8.5146875 C11.2953125,8.5196875 11.3032813,8.52515625 11.3101563,8.5303125 C11.3148437,8.534375 11.3196875,8.53828125 11.3242188,8.5425 C11.3493826,8.56500751 11.3732737,8.58889865 11.3957813,8.6140625 L11.398125,8.61671875 L11.38875,8.60109375 C11.3970313,8.61546875 11.4089063,8.62875 11.418125,8.6425 C11.4389376,8.67355875 11.4579279,8.70580058 11.475,8.7390625 C11.4782813,8.74546875 11.481875,8.7546875 11.4859375,8.76375 C11.49,8.7728125 11.4904687,8.77609375 11.4925,8.7825 C11.5033185,8.81551702 11.5122907,8.84911065 11.519375,8.883125 L11.5203125,8.88859375 C11.5203125,8.88234375 11.5203125,8.8753125 11.519375,8.8671875 C11.519375,8.88140625 11.5223437,8.89578125 11.5232812,8.90984375 C11.5253125,8.9396875 11.5254687,8.96953125 11.525625,8.99953125 L11.525625,9.28359375 L10.2195312,9.28359375 C9.70234308,9.28359374 9.28305503,9.70281183 9.28296875,10.22 L9.28296875,14.048125 C9.2831413,14.5652521 9.70240408,14.9843756 10.2195313,14.9843756 L14.046875,14.9843756 C14.2954148,14.9846653 14.5338745,14.8861367 14.7097214,14.710495 C14.8855682,14.5348532 14.984375,14.2965087 14.984375,14.0479688 L14.984375,10.2198438 C14.984375,9.9713579 14.8854487,9.73309372 14.7096108,9.55751961 C14.533773,9.3819455 14.2953607,9.28345975 14.046875,9.28375 L14.046875,9.28375 Z" id="路径"></path>
                        </g>
                    </g>
                </g>
            </g>
        </g>
    </g>
</svg>
