<?xml version="1.0" encoding="UTF-8"?>
<svg width="16px" height="16px" viewBox="0 0 16 16" version="1.1" xmlns="http://www.w3.org/2000/svg" xmlns:xlink="http://www.w3.org/1999/xlink">
    <title>形状</title>
    <g id="页面-1" stroke="none" stroke-width="1" fill="none" fill-rule="evenodd">
        <g id="组织管理-线上" transform="translate(-260.000000, -157.000000)" fill="#4BBC74" fill-rule="nonzero">
            <g id="组织管理" transform="translate(226.000000, 100.000000)">
                <g id="组织总架构" transform="translate(0.000000, 54.000000)">
                    <g id="Checkbox/Default/Normal" transform="translate(20.000000, 0.000000)">
                        <g id="公司" transform="translate(14.000000, 3.000000)">
                            <rect id="矩形" opacity="0" x="0" y="0" width="16" height="16"></rect>
                            <path d="M14.688,13.48 L13.92,13.48 L13.92,4.736 C13.92,4.48 13.768,4.256 13.536,4.144 L9.704,2.144 C9.488,2.048 9.248,2.048 9.032,2.144 C8.792,2.24 8.64,2.472 8.648,3.736 L8.648,14.48 L7.88,14.48 L7.88,2.672 C7.88,1.376 7.88,1.184 7.592,1.08 C7.344,0.976 7.072,0.976 6.824,1.08 L2.44,3.392 C2.208,3.504 2.056,3.744 2.056,4 L2.056,13.488 L1.288,13.488 C1.096,13.488 1,13.592 1,13.688 L1,14.8 C1,14.896 1.096,15 1.288,15 L14.688,15 C14.776,15 14.96,14.896 14.976,14.8 L14.976,13.696 C15,13.576 14.792,13.48 14.688,13.48 Z M5.688,12.072 C5.688,12.184 5.6,12.272 5.488,12.272 L4.408,12.272 C4.296,12.272 4.208,12.184 4.208,12.072 L4.208,11.136 C4.208,11.024 4.296,10.936 4.408,10.936 L5.512,10.936 C5.624,10.936 5.712,11.024 5.712,11.136 L5.688,12.072 L5.688,12.072 Z M5.688,9.248 C5.688,9.36 5.6,9.448 5.488,9.448 L4.408,9.448 C4.296,9.448 4.208,9.36 4.208,9.248 L4.208,8.296 C4.208,8.184 4.296,8.096 4.408,8.096 L5.512,8.096 C5.624,8.096 5.712,8.184 5.712,8.296 L5.688,9.248 L5.688,9.248 Z M5.688,6.432 C5.688,6.544 5.6,6.632 5.488,6.632 L4.408,6.632 C4.296,6.632 4.208,6.544 4.208,6.432 L4.208,5.472 C4.208,5.36 4.296,5.272 4.408,5.272 L5.512,5.272 C5.624,5.272 5.712,5.36 5.712,5.472 L5.688,6.432 L5.688,6.432 Z M12,12.064 C12,12.176 11.912,12.264 11.8,12.264 L10.696,12.264 C10.584,12.264 10.496,12.176 10.496,12.064 L10.496,11.12 C10.496,11.008 10.584,10.92 10.696,10.92 L11.8,10.92 C11.912,10.92 12,11.008 12,11.12 L12,12.064 Z M12,9.24 C12,9.352 11.912,9.44 11.8,9.44 L10.696,9.44 C10.584,9.44 10.496,9.352 10.496,9.24 L10.496,8.296 C10.496,8.184 10.584,8.096 10.696,8.096 L11.8,8.096 C11.912,8.096 12,8.184 12,8.296 L12,9.24 L12,9.24 Z M12,6.424 C12,6.536 11.912,6.624 11.8,6.624 L10.696,6.624 C10.584,6.624 10.496,6.536 10.496,6.424 L10.496,5.472 C10.496,5.36 10.584,5.272 10.696,5.272 L11.8,5.272 C11.912,5.272 12,5.36 12,5.472 L12,6.424 Z" id="形状"></path>
                        </g>
                    </g>
                </g>
            </g>
        </g>
    </g>
</svg>
