<svg t="1620386270516" class="icon" viewBox="0 0 1024 1024" version="1.1" xmlns="http://www.w3.org/2000/svg" p-id="1890" width="128" height="128"><path d="M790.528 515.072l6.144 2.944 153.472 88.576a44.8 44.8 0 0 1 21.888 32l0.512 6.848v177.216a44.8 44.8 0 0 1-16.768 34.944l-5.632 3.84-153.472 88.576a44.8 44.8 0 0 1-38.656 2.944l-6.144-2.944L598.4 861.44a44.8 44.8 0 0 1-21.888-32L576 822.592v-177.28a44.8 44.8 0 0 1 16.768-34.944l5.632-3.84 153.472-88.576a44.8 44.8 0 0 1 38.656-2.944zM480 832a32 32 0 1 1 0 64h-320a32 32 0 1 1 0-64h320z m294.272-253.056L640 656.448v155.072l134.4 77.504 134.208-77.44v-155.136l-134.272-77.44zM768 672a64 64 0 1 1 0 128 64 64 0 0 1 0-128zM864 64a96 96 0 0 1 95.552 86.784L960 160v318.016a32 32 0 0 1-63.488 5.76L896 477.952V160a32 32 0 0 0-26.24-31.488L864 128h-704a32 32 0 0 0-31.488 26.24L128 160v511.808l0.576 5.76a32 32 0 0 0 25.856 25.6l5.76 0.448 255.616-1.6a32 32 0 0 1 6.144 63.36l-5.76 0.64-255.616 1.6a96 96 0 0 1-96.064-86.4L64 672v-512a96 96 0 0 1 86.784-95.552L160 64h704z" p-id="1891"></path></svg>
